Patient4_TMGait_0pt5_02_left_17_EMG.mot
version=1
nRows=39
nColumns=33
inDegrees=no
endheader
time	1LAddLong	2LGlutMax	3LGlutMed	4LIliopsoas	5LSemiMemb	6LBicFemLong	7LRecFem	8LVastMed	9LVastLat	10LGasMed	11LTibAnt	12lTibPost	13LPeroneusLong	14LSol	15LExtDigLong	16LFlexDigLong	17RAddLong	18RGlutMax	19RGlutMed	20RIliopsoas	21RSemiMemb	22RBicFemLong	23RRecFem	24RVastMed	25RVastLat	26RGasMed	27RTibAnt	28RTibPost	29RPeroneusLong	30RSol	31RExtDigLong	32RFlexDigLong
22.82	0.004883	-0.034637	-0.062714	0.027008	0.007629	0.025635	-0.011292	0.00351	0.054474	-0.038605	-0.000153	-0.007629	0.010681	-0.042725	-0.003967	0.006714	0.005341	0.090637	0.049286	0.085297	-0.007324	0.015411	0.12009	-0.016327	0.001068	0.000458	0.021973	-0.000458	-0.23209	0.067749	-0.002289	-0.005646
22.821	-0.000305	-0.035858	-0.0354	0.003662	0.013275	0.026398	0.011444	-0.005035	0.054779	-0.026855	0.001526	-0.001373	0.003967	-0.050354	0.000763	-0.006409	0.010834	0.090942	-0.37354	0.2182	-0.048828	-0.007172	-0.14481	-0.16098	0.036011	0.004272	0.024567	-0.012054	-0.43762	-0.070648	0.003815	-0.015869
22.822	-0.002441	-0.037842	-0.047913	-0.002899	0.008545	0.030823	-0.004883	0.007629	0.040741	-0.029755	0.000458	-0.00351	0.001984	-0.048828	-0.002289	-0.003052	0.028839	-0.054779	-0.50415	0.18646	-0.12207	-0.002899	-0.17883	-0.10117	0.054779	-0.000916	0.019989	0.022583	-0.55588	-0.066681	-0.002136	-0.009766
22.823	0.005035	-0.066833	-0.07309	0.003204	0.003052	-0.009003	0.001831	-0.003815	0.038605	-0.023804	0.003052	0.00412	-0.003052	-0.063477	0.003357	0.009003	0.034943	-0.058289	-0.32745	0.13733	-0.2507	0.007782	-0.061798	-0.030975	0.080261	-0.007019	0.019073	0.011749	-0.41977	0.03952	0.000153	-0.009766
22.824	0.000763	-0.067596	-0.011597	0.00946	-0.011292	0.009613	-0.02243	0.005493	0.03479	-0.026398	0.005951	0.004578	0.001221	-0.075073	-0.003052	0.007172	0.032196	-0.16296	-0.098572	0.070496	-0.15839	0.023041	0.035248	-0.008698	0.028534	-0.000916	0.002899	-0.005798	-0.65872	0.10086	0.003204	-0.00412
22.825	-0.007782	-0.049896	-0.033417	-0.014038	-0.00473	0.009613	-0.013733	0.005035	0.028076	-0.032654	-0.000763	0.000458	0.000153	-0.03952	0.004272	-0.004883	0.017242	-0.168	-0.22919	0.028992	0.012054	0.011902	0.032959	-0.035706	0.001526	-0.004883	0.003815	-0.012817	-0.88989	0.14496	-0.002441	-0.003662
22.826	-0.000153	-0.079651	-0.13794	-0.018921	-0.014496	0.020752	-0.000305	0.005341	0.029602	-0.039063	0.007324	0.002289	-0.010376	-0.056458	0.003204	0.00946	-0.019531	-0.12512	-0.33661	-0.003204	-0.019379	0.010071	-0.022125	-0.014801	-0.008087	-0.001373	-0.018768	-0.003662	0.45303	0.10254	-0.001221	-0.006561
22.827	-0.015411	-0.09491	-0.14984	-0.002899	-0.019226	0.014496	-0.018616	-0.000305	0.029907	-0.023041	-0.000916	0.005951	-0.010986	-0.043488	-0.002747	-0.000153	-0.010986	-0.087738	0.23758	-0.033569	0.16159	-0.029144	0.029602	-0.084686	-0.005951	-0.000305	-0.048981	-0.008087	1.8141	0.033112	0.00351	-0.00473
22.828	-0.001221	-0.05127	-0.08606	0.006256	0.019073	-0.013123	-0.003662	0.004272	0.034485	-0.038605	0.007324	0.004578	-0.02655	-0.060425	-0.003357	0.010834	-0.00473	-0.10315	0.48141	-0.071869	0.13245	-0.034637	0.034943	-0.068817	-0.023346	-0.002747	-0.034943	-0.01297	0.70969	0.046692	0.002594	-0.005341
22.829	0.010223	-0.048218	0.04776	0.008698	0.054626	-0.008698	-0.025024	0.005035	0.027313	-0.036316	-0.000916	0.007935	-0.0177	-0.056915	-0.002594	0.007477	0.018616	-0.034943	0.12604	-0.090179	-0.022736	-0.023499	0.046692	-0.077362	-0.017395	-0.005035	0.014801	-0.010681	-0.002747	0.02594	0	-0.002441
22.83	0.012817	-0.084229	0.10071	0.018768	0.021667	0.011597	-0.047607	0.001526	0.025787	-0.033264	0.001221	0.00824	-0.016632	-0.048523	0.001526	0.000305	0.010986	-0.083923	-0.068054	0.018768	0.035248	-0.015411	0.014038	0.005646	-0.00824	-0.005798	0.043945	-0.010223	-0.87631	-0.038147	-0.000305	-0.003204
22.831	0.007172	-0.093842	0.038452	0.002441	-0.042419	0.012665	-0.050507	0.001221	0.025635	-0.033875	0.001984	0.005188	-0.018768	-0.050049	0.009308	0.008392	0.000305	-0.050354	-0.11963	0.035248	0.076752	0.023499	-0.018005	0.084381	0.059357	0.016632	-0.020142	-0.007019	-0.72861	-0.070648	-0.005341	-0.001068
22.832	0.012054	-0.089417	0.03067	0.000458	-0.0737	0.019226	-0.02594	0.005035	0.028839	-0.036926	0.007172	0.003662	-0.015869	-0.056763	0.002136	0.015564	-0.024109	-0.014343	0.36529	0.007019	0.017395	0.0354	0.006409	0.093536	0.037842	0.012512	-0.14633	-0.009308	0.87769	0.019379	0.005341	-0.009918
22.833	0.00061	-0.093384	0.092468	0.007782	0.009155	0.033417	-0.042572	0.002441	0.037079	-0.032349	0.009308	0.00351	-0.041656	-0.056763	0.001068	0.000153	-0.008392	-0.000916	0.62439	0.06012	-0.033875	0.048065	0.068665	0.056458	-0.007019	0.008392	-0.06073	-0.011292	0.47272	0.055084	-0.003357	-0.007019
22.834	0.007324	-0.10117	0.12497	0.00946	0.025177	0.010986	-0.029449	-0.005493	0.035858	-0.039978	0.005951	0.011749	-0.036163	-0.062408	-0.000153	0.003204	0.02243	0.010529	0.13199	0.10101	-0.15884	0.051117	0.11246	0.012207	-0.037384	0.003967	0.012665	-0.009613	0.29572	-0.17029	-0.003204	-0.005798
22.835	-0.01236	-0.10391	0.035858	-0.008392	0.031738	0.001678	-0.048676	0.003662	0.028839	-0.038147	0.006866	0.007324	-0.03952	-0.065613	0.006561	0.005951	0.020905	0.011444	-0.16556	0.069427	-0.15701	0.088501	0.069733	-0.043793	-0.055084	0.007019	0.027008	-0.012512	0.027313	-0.5661	-0.008698	-0.019531
22.836	0.066223	-0.082245	0.020905	0.016022	0.012054	0.012512	-0.04776	0.002747	0.031738	-0.036926	0.006561	0.002289	-0.030975	-0.044556	0.003967	0.013123	0.029297	0.022888	-0.20294	0.014038	-0.14877	0.10178	0.093994	-0.025177	-0.018158	-0.006409	0.02533	-0.011597	-0.1268	-0.56946	0.000153	-0.014801
22.837	-0.028381	-0.088959	0.014801	-0.001373	-0.012054	0.021973	-0.044708	0.00351	0.032501	-0.030518	-0.000153	0.008392	-0.004578	-0.063019	-0.003967	0.012054	0.020905	-0.0177	-0.10239	-0.001526	-0.074615	0.04837	0.050659	-0.030823	0.05722	-0.010071	0.006866	-0.002899	-0.14282	-0.03418	-0.001678	-0.012207
22.838	-0.008087	-0.10208	-0.005951	0.002441	0.010529	0.032806	-0.055389	0.008698	0.028381	-0.021973	-0.007324	0.01236	0.001526	-0.059814	0.004578	0.002441	0.012817	-0.054016	0.11215	-0.002899	0.02594	-0.052338	0.002594	-0.023193	0.121	0.001984	0.050659	0.002441	0.040283	0.58807	-0.002136	-0.017242
22.839	0.003815	-0.082397	-0.054474	0.014038	-0.006561	0.044098	-0.056	0.009613	0.034485	-0.022736	0.002441	0.00412	-0.009766	-0.055542	0.000916	0.008392	-0.008545	0.007324	0.033264	-0.021362	0.035248	-0.12528	-0.12161	0.027618	0.13336	-0.004883	0.069885	-0.002899	0.001831	0.41	0.002594	-0.013275
22.84	-0.000305	-0.065613	-0.04776	0.000305	-0.007019	0.031433	-0.055695	0.001984	0.028839	-0.018463	0.002136	0.007324	-0.016327	-0.072479	0	0.003052	-0.045624	0.0383	-0.33646	-0.050659	0.094147	-0.18707	-0.17761	0.12634	0.11139	-0.002289	0.018768	-0.079651	-0.32028	-0.055847	0.001373	-0.012512
22.841	0.032043	-0.11948	-0.078583	0.006104	-0.014191	-0.002441	-0.063171	-0.003357	0.028229	-0.023193	0.005035	0	-0.027466	-0.050354	-0.001831	0.010986	-0.03891	0.046539	0.037231	-0.029297	0.13565	-0.16327	-0.18036	-0.008392	0.046234	-0.017548	0.028381	-0.36697	-0.94162	-0.40253	-0.002747	-0.005798
22.842	0.030365	-0.10742	-0.050201	0.001831	-0.018463	-0.031586	-0.066833	0.006561	0.027924	-0.021667	-0.000305	0.006866	-0.019684	-0.071564	0.000458	0.008392	-0.025787	-0.043335	0.19089	0.011292	0.08667	-0.013428	-0.017548	0.015411	0.010223	-0.008087	-0.006409	0.079193	-0.25818	-0.21988	0.00061	-0.003052
22.843	0.028687	-0.10788	0.023193	-0.007172	0.033264	-0.039673	-0.065155	-0.003357	0.023651	-0.027771	0.00412	0.005188	-0.032654	-0.051575	0.004425	-0.001373	-0.047913	0.088043	-0.16235	0.005798	0.053864	0.052185	0.07843	0.045929	-0.054169	-0.015564	-0.022736	-0.08255	0.6134	-0.037537	0.002441	-0.003052
22.844	0.019531	-0.10757	0.074463	-0.002441	0.07843	-0.012054	-0.055237	-0.003204	0.034485	-0.027008	0.00885	0.002899	-0.026855	-0.055237	0.000305	0.023193	-0.021973	0.13306	-0.16693	-0.042572	0.072632	0.079498	0.10178	0.096436	-0.047607	-0.018463	-0.03952	-0.19012	0.68329	-0.26169	0.000763	-0.004578
22.845	0.014954	-0.13473	0.10803	0.023499	0.056763	-0.010529	-0.058441	0.000916	0.018616	-0.029602	0.002899	0.004272	-0.035858	-0.058136	-0.002289	0.004425	-0.008698	0.074768	-0.005646	-0.094452	0.059052	0.086517	0.1503	0.074768	-0.035248	-0.009613	-0.043945	0.2504	0.69656	-0.33417	0.00351	-0.007019
22.846	0.009766	-0.13779	0.047302	0.027618	0.023651	0.016327	-0.050507	-0.002441	0.021515	-0.034027	0.007477	0.007935	-0.039673	-0.067444	0.002289	0.002289	-0.003662	-0.020142	-0.2095	-0.11597	0.036926	0.077515	0.17883	0.010986	-0.041199	0.007172	0.004578	0.29968	0.078278	0.056763	0.001984	0.002594
22.847	0.005646	-0.11673	0.053253	0.012817	0.016174	0.022736	-0.072327	-0.001831	0.014648	-0.03006	0.003967	0.000153	-0.030975	-0.053406	0.004883	0.009003	0.013123	0.002289	0.018768	-0.16083	0.022278	0.065918	0.22354	0.016632	-0.032959	0.003052	0.032959	0.21591	-0.012665	0.028229	0.002441	-0.002747
22.848	0.005646	-0.13794	0.044708	-0.002899	0.017548	0.049286	-0.079193	-0.001221	0.016785	-0.029297	-0.00351	0.002441	-0.039673	-0.061035	0.007019	0.006561	0.017395	0.012817	0.29572	-0.12924	0.010986	0.028839	0.15411	-0.063934	-0.001068	-0.002594	0.041962	0.079651	0.11154	0.17319	-0.000916	-0.006409
22.849	0.000153	-0.13168	0.069733	0.010376	0.022736	0.079651	-0.061493	0.003204	0.014343	-0.024719	0.001526	0.002441	-0.038605	-0.050201	0.003357	0.009766	0.02182	0.030518	0.056763	0.016937	0.049133	-0.034637	0.13138	-0.037231	0.011902	0.005188	0.014343	0.027008	0.30838	0.74097	-0.003204	-0.018005
22.85	-0.00351	-0.11063	0.056915	-0.010986	0.001221	0.10757	-0.063019	0.005035	0.006866	-0.023956	-0.003357	-0.000305	-0.038605	-0.054321	0.003204	-0.005493	0.006714	0.045013	-0.10269	0.08728	0.10956	0.001984	0.26611	0.024719	0.059662	0.011292	-0.03891	0.001526	0.066071	0.59357	0.000305	-0.000305
22.851	-0.001068	-0.11231	0.06073	0.005188	-0.029602	0.11246	-0.082703	-0.001526	0.015564	-0.030212	-0.001068	-0.003662	-0.04425	-0.052185	0.003967	-0.004883	0.028839	0.060883	0.036926	0.16007	0.051575	-0.009003	0.35202	-0.078888	-0.000153	0.001678	-0.056305	-0.038147	0.019379	0.30838	0.004425	-0.010681
22.852	0.000916	-0.11459	0.00885	0.005035	-0.073853	0.12573	-0.074768	0.004272	0.014496	-0.019836	0.006409	-0.001526	-0.040131	-0.044403	-0.004578	0.009766	0.036011	0.037079	-0.042267	0.19424	-0.052338	-0.018463	0.18997	-0.16266	-0.0737	-0.003052	-0.032806	-0.052795	0.13062	0.13596	-0.000458	-0.003967
22.853	0.004883	-0.12543	-0.027161	0.014191	-0.1236	0.042419	-0.084381	0.000916	0.010986	-0.018616	0.001984	0.014648	-0.041504	-0.067444	0.002594	0.005035	-0.00061	-0.029449	-0.44601	0.10895	-0.036774	-0.022278	-0.25421	-0.19913	-0.066681	-0.014954	0.052032	-0.000305	-0.30777	0.027924	0	-0.013885
22.854	0.007172	-0.12772	-0.034332	0.000763	0.001526	0.032043	-0.065918	0.00061	0.007935	-0.019226	0.003967	-0.000305	-0.033569	-0.061035	0.001831	-0.000763	-0.017242	0.013123	0.37781	-0.050049	-0.058899	-0.048828	-0.56732	-0.22232	-0.13672	-0.016479	0.024719	-0.009613	-0.51743	0.012512	-0.001526	-0.009613
22.855	0.00412	-0.1355	0.007782	0.00473	0.076447	0.016174	-0.079346	0.003204	-0.003052	-0.017548	-0.001678	0.002441	-0.0354	-0.04425	0.00412	0.000305	-0.009766	0.009003	1.1569	-0.10422	-0.15228	-0.058899	-0.47424	-0.076447	0.012665	-0.005341	0.014496	-0.015411	-0.23941	0.040741	-0.006866	-0.000153
22.856	0.006256	-0.15778	0.042877	-0.00412	0.056	0.03479	-0.090637	0.005341	-0.001526	-0.025177	-0.005341	-0.000763	-0.037231	-0.08255	0.000305	0.002441	0.005798	-0.008087	0.46005	0.006409	-0.054016	-0.066071	-0.17151	0.14297	0.074615	0.001831	-0.005341	-0.016479	-0.024414	0.052948	-0.002594	-0.005035
22.857	0.004425	-0.10635	0.001526	0.002594	0.022583	0.07019	-0.078888	0.006714	0.003967	-0.021515	-0.00412	-0.003052	-0.033722	-0.065918	-0.00061	0.003357	0.0177	0.081329	0.26718	0.068359	0.069427	-0.10925	-0.12756	0.21851	0.24368	-0.000916	-0.008698	-0.022278	0.10696	0.071716	-0.001373	0.003967
22.858	-0.008392	-0.10956	-0.050201	0.005493	0.023804	0.065765	-0.088196	0.009155	0.010529	-0.02594	-0.001831	-0.001221	-0.037689	-0.06485	0.006866	0.001984	0.01358	0.006866	0.17136	0.076447	0.066376	-0.057983	-0.15915	0.22583	0.23911	-0.010071	0.032196	-0.019379	0.13657	0.103	-0.001068	-0.000305
